<?xml version="1.0" encoding="UTF-8"?>
<svg xmlns="http://www.w3.org/2000/svg" width="96" height="96" viewBox="0 0 96 96">
  <defs><linearGradient id="shadow" x1="0" x2="0" y1="0" y2="1">
      <stop offset="0" stop-color="#000000" stop-opacity=".08"/>
      <stop offset="1" stop-color="#000000" stop-opacity=".36"/>
    </linearGradient></defs>
  <rect width="96" height="96" fill="#100408"/>
  <g opacity=".94">
    <polygon points="-190,0 -172,0 -76,96 -94,96" fill="#ffb65c" opacity=".82"/>
    <polygon points="-156,0 -134,0 -38,96 -60,96" fill="#c56f33" opacity=".72"/>
    <polygon points="-116,0 -104,0 -8,96 -20,96" fill="#5b341d" opacity=".7"/>
    <polygon points="-94,0 -76,0 20,96 2,96" fill="#ffb65c" opacity=".82"/>
    <polygon points="-60,0 -38,0 58,96 36,96" fill="#c56f33" opacity=".72"/>
    <polygon points="-20,0 -8,0 88,96 76,96" fill="#5b341d" opacity=".7"/>
    <polygon points="2,0 20,0 116,96 98,96" fill="#ffb65c" opacity=".82"/>
    <polygon points="36,0 58,0 154,96 132,96" fill="#c56f33" opacity=".72"/>
    <polygon points="76,0 88,0 184,96 172,96" fill="#5b341d" opacity=".7"/>
    <polygon points="98,0 116,0 212,96 194,96" fill="#ffb65c" opacity=".82"/>
    <polygon points="132,0 154,0 250,96 228,96" fill="#c56f33" opacity=".72"/>
    <polygon points="172,0 184,0 280,96 268,96" fill="#5b341d" opacity=".7"/>
    <polygon points="194,0 212,0 308,96 290,96" fill="#ffb65c" opacity=".82"/>
    <polygon points="228,0 250,0 346,96 324,96" fill="#c56f33" opacity=".72"/>
    <polygon points="268,0 280,0 376,96 364,96" fill="#5b341d" opacity=".7"/>
  </g>
  <rect width="96" height="96" fill="url(#shadow)"/>
</svg>
