<?xml version="1.0" encoding="UTF-8"?>
<svg xmlns="http://www.w3.org/2000/svg" width="96" height="96" viewBox="0 0 96 96">
  <defs><linearGradient id="shadow" x1="0" x2="0" y1="0" y2="1">
      <stop offset="0" stop-color="#000000" stop-opacity=".08"/>
      <stop offset="1" stop-color="#000000" stop-opacity=".36"/>
    </linearGradient></defs>
  <rect width="96" height="96" fill="#100408"/>
  <g opacity=".94">
    <polygon points="-186,0 -164,0 -68,96 -90,96" fill="#ff284f" opacity=".95"/>
    <polygon points="-152,0 -144,0 -48,96 -56,96" fill="#ff86a0" opacity=".48"/>
    <polygon points="-126,0 -104,0 -8,96 -30,96" fill="#8a0f24" opacity=".84"/>
    <polygon points="-90,0 -68,0 28,96 6,96" fill="#ff284f" opacity=".95"/>
    <polygon points="-56,0 -48,0 48,96 40,96" fill="#ff86a0" opacity=".48"/>
    <polygon points="-30,0 -8,0 88,96 66,96" fill="#8a0f24" opacity=".84"/>
    <polygon points="6,0 28,0 124,96 102,96" fill="#ff284f" opacity=".95"/>
    <polygon points="40,0 48,0 144,96 136,96" fill="#ff86a0" opacity=".48"/>
    <polygon points="66,0 88,0 184,96 162,96" fill="#8a0f24" opacity=".84"/>
    <polygon points="102,0 124,0 220,96 198,96" fill="#ff284f" opacity=".95"/>
    <polygon points="136,0 144,0 240,96 232,96" fill="#ff86a0" opacity=".48"/>
    <polygon points="162,0 184,0 280,96 258,96" fill="#8a0f24" opacity=".84"/>
    <polygon points="198,0 220,0 316,96 294,96" fill="#ff284f" opacity=".95"/>
    <polygon points="232,0 240,0 336,96 328,96" fill="#ff86a0" opacity=".48"/>
    <polygon points="258,0 280,0 376,96 354,96" fill="#8a0f24" opacity=".84"/>
  </g>
  <rect width="96" height="96" fill="url(#shadow)"/>
</svg>
